<?xml version="1.0" encoding="utf-8" ?>
<svg baseProfile="full" height="500" version="1.1" width="401" xmlns="http://www.w3.org/2000/svg" xmlns:ev="http://www.w3.org/2001/xml-events" xmlns:xlink="http://www.w3.org/1999/xlink"><defs><marker id="arrow" markerHeight="3.5" markerWidth="5" orient="auto" refX="5.0" refY="1.7"><polygon points="0,0 5,1.75 0,3.5" /></marker></defs><g style="fill:white;"><g transform="matrix(1.0, 0.0, 0.0, 1.0, 200.49999999999997, 249.48799791666667)"><g transform="matrix(16.43873802964712, 0.0, 0.0, 16.43873802964712, 0.0, 0.0)"><g><g transform="matrix(1.0, 0.0, 0.0, 1.0, -0.0, -0.0)"><g><g style="fill: #ffffff;stroke: black;stroke-width: 1.5;" transform="matrix(1.0, 0.0, 0.0, 1.0, 0.0, 0.0)"><rect height="28.908255200000003" style="vector-effect: non-scaling-stroke;" width="23.232" x="-11.616" y="-14.454127600000001" /></g><g transform="matrix(1.0, 0.0, 0.0, 1.0, -8.881784197001252e-16, -13.629127600000002)"><g><g><g><g><g><g><g style="stroke: black;stroke-width: 1.5;" transform="matrix(1.0, 0.0, 0.0, 1.0, 0.0, 0.0)"><g /></g><g transform="matrix(1.0, 0.0, 0.0, 1.0, 0.0, 0.75)"><g style="stroke: black;stroke-width: 1.5;" transform="matrix(1.0, 0.0, 0.0, 1.0, 0.0, 0.0)"><text style="text-align:center; text-anchor:middle; dominant-baseline:middle;font-family:sans-serif; font-weight: bold;font-size:1px;vector-effect: non-scaling-stroke;" transform="translate(-5e-05, 0)">Prefix Sum (Full)</text></g></g></g><g transform="matrix(1.0, 0.0, 0.0, 1.0, 0.0, 1.2501)"><g style="stroke: black;stroke-width: 1.5;" transform="matrix(1.0, 0.0, 0.0, 1.0, 0.0, 0.0)"><g /></g></g></g><g transform="matrix(1.0, 0.0, 0.0, 1.0, 0.0, 2.2500999999999998)"><g transform="matrix(1.0, 0.0, 0.0, 1.0, -3.8500000000000005, -0.0)"><g><g><g><g><g><g><g><g><g /><g transform="matrix(1.0, 0.0, 0.0, 1.0, 0.0, 0.0)"><g><g style="fill: #ff0000;stroke: black;stroke-width: 1.5;fill-opacity: 0.7;" transform="matrix(1.0, 0.0, 0.0, 1.0, 0.0, 0.0)"><circle cx="0.0" cy="0.0" r="0.5" style="vector-effect: non-scaling-stroke" /></g><g style="stroke: black;stroke-width: 1.5;" transform="matrix(0.00125, 0.0, 0.0, 0.00125, 0.0, 0.0)"><image transform="translate(-360.0, -360.0)" xlink:href="metal.png" /></g></g></g></g><g transform="matrix(1.0, 0.0, 0.0, 1.0, 1.1, 0.0)"><g><g style="fill: #ff7100;stroke: black;stroke-width: 1.5;fill-opacity: 0.7;" transform="matrix(1.0, 0.0, 0.0, 1.0, 0.0, 0.0)"><circle cx="0.0" cy="0.0" r="0.5" style="vector-effect: non-scaling-stroke" /></g><g style="stroke: black;stroke-width: 1.5;" transform="matrix(0.00125, 0.0, 0.0, 0.00125, 0.0, 0.0)"><image transform="translate(-360.0, -360.0)" xlink:href="metal.png" /></g></g></g></g><g transform="matrix(1.0, 0.0, 0.0, 1.0, 2.2, 0.0)"><g><g style="fill: #ffe300;stroke: black;stroke-width: 1.5;fill-opacity: 0.7;" transform="matrix(1.0, 0.0, 0.0, 1.0, 0.0, 0.0)"><circle cx="0.0" cy="0.0" r="0.5" style="vector-effect: non-scaling-stroke" /></g><g style="stroke: black;stroke-width: 1.5;" transform="matrix(0.00125, 0.0, 0.0, 0.00125, 0.0, 0.0)"><image transform="translate(-360.0, -360.0)" xlink:href="metal.png" /></g></g></g></g><g transform="matrix(1.0, 0.0, 0.0, 1.0, 3.3000000000000003, 0.0)"><g><g style="fill: #aaff00;stroke: black;stroke-width: 1.5;fill-opacity: 0.7;" transform="matrix(1.0, 0.0, 0.0, 1.0, 0.0, 0.0)"><circle cx="0.0" cy="0.0" r="0.5" style="vector-effect: non-scaling-stroke" /></g><g style="stroke: black;stroke-width: 1.5;" transform="matrix(0.00125, 0.0, 0.0, 0.00125, 0.0, 0.0)"><image transform="translate(-360.0, -360.0)" xlink:href="metal.png" /></g></g></g></g><g transform="matrix(1.0, 0.0, 0.0, 1.0, 4.4, 0.0)"><g><g style="fill: #39ff00;stroke: black;stroke-width: 1.5;fill-opacity: 0.7;" transform="matrix(1.0, 0.0, 0.0, 1.0, 0.0, 0.0)"><circle cx="0.0" cy="0.0" r="0.5" style="vector-effect: non-scaling-stroke" /></g><g style="stroke: black;stroke-width: 1.5;" transform="matrix(0.00125, 0.0, 0.0, 0.00125, 0.0, 0.0)"><image transform="translate(-360.0, -360.0)" xlink:href="metal.png" /></g></g></g></g><g transform="matrix(1.0, 0.0, 0.0, 1.0, 5.5, 0.0)"><g><g style="fill: #00ff39;stroke: black;stroke-width: 1.5;fill-opacity: 0.7;" transform="matrix(1.0, 0.0, 0.0, 1.0, 0.0, 0.0)"><circle cx="0.0" cy="0.0" r="0.5" style="vector-effect: non-scaling-stroke" /></g><g style="stroke: black;stroke-width: 1.5;" transform="matrix(0.00125, 0.0, 0.0, 0.00125, 0.0, 0.0)"><image transform="translate(-360.0, -360.0)" xlink:href="metal.png" /></g></g></g></g><g transform="matrix(1.0, 0.0, 0.0, 1.0, 6.6000000000000005, 0.0)"><g><g style="fill: #00ffaa;stroke: black;stroke-width: 1.5;fill-opacity: 0.7;" transform="matrix(1.0, 0.0, 0.0, 1.0, 0.0, 0.0)"><circle cx="0.0" cy="0.0" r="0.5" style="vector-effect: non-scaling-stroke" /></g><g style="stroke: black;stroke-width: 1.5;" transform="matrix(0.00125, 0.0, 0.0, 0.00125, 0.0, 0.0)"><image transform="translate(-360.0, -360.0)" xlink:href="metal.png" /></g></g></g></g><g transform="matrix(1.0, 0.0, 0.0, 1.0, 7.700000000000001, 0.0)"><g><g style="fill: #00e3ff;stroke: black;stroke-width: 1.5;fill-opacity: 0.7;" transform="matrix(1.0, 0.0, 0.0, 1.0, 0.0, 0.0)"><circle cx="0.0" cy="0.0" r="0.5" style="vector-effect: non-scaling-stroke" /></g><g style="stroke: black;stroke-width: 1.5;" transform="matrix(0.00125, 0.0, 0.0, 0.00125, 0.0, 0.0)"><image transform="translate(-360.0, -360.0)" xlink:href="metal.png" /></g></g></g></g></g></g></g><g transform="matrix(1.0, 0.0, 0.0, 1.0, 0.0, 3.2500999999999998)"><g style="stroke: black;stroke-width: 1.5;" transform="matrix(1.0, 0.0, 0.0, 1.0, 0.0, 0.0)"><g /></g></g></g><g transform="matrix(1.0, 0.0, 0.0, 1.0, 0.0, 14.640166)"><g transform="matrix(1.0, 0.0, 0.0, 1.0, -5.279999999999999, -0.0)"><g><g><g /><g transform="matrix(1.0, 0.0, 0.0, 1.0, 0.0, 0.0)"><g><g><g><g transform="matrix(1.0, 0.0, 0.0, 1.0, -3.5, -0.0)"><g><g><g style="stroke: black;stroke-width: 1.5;" transform="matrix(1.0, 0.0, 0.0, 1.0, 0.0, 0.0)"><g /></g><g transform="matrix(1.0, 0.0, 0.0, 1.0, 3.5, 0.0)"><g transform="matrix(1.0, 0.0, 0.0, 1.0, -0.0, 0.5000499999999999)"><g><g transform="matrix(1.0, 0.0, 0.0, 1.0, -2.5, -0.0)"><g><g><g><g><g><g><g><g><g><g><g><g><g transform="matrix(1.0, 0.0, 0.0, 1.0, -0.0, 0.25)"><g><g transform="matrix(1.0, 0.0, 0.0, 1.0, -0.0, -7.0)"><g><g><g><g><g><g><g><g><g><g><g><g><g><g><g><g /><g><g style="stroke: black;stroke-width: 0.75;" transform="matrix(1.0, 0.0, 0.0, 1.0, 0.0, 0.0)"><rect height="1" style="vector-effect: non-scaling-stroke;" width="1" x="-0.5" y="-0.5" /></g></g></g><g><g style="stroke: black;stroke-width: 0.75;" transform="matrix(1.0, 0.0, 0.0, 1.0, 0.0, 1.0)"><rect height="1" style="vector-effect: non-scaling-stroke;" width="1" x="-0.5" y="-0.5" /></g></g></g><g><g style="stroke: black;stroke-width: 0.75;" transform="matrix(1.0, 0.0, 0.0, 1.0, 0.0, 2.0)"><rect height="1" style="vector-effect: non-scaling-stroke;" width="1" x="-0.5" y="-0.5" /></g></g></g><g><g style="stroke: black;stroke-width: 0.75;" transform="matrix(1.0, 0.0, 0.0, 1.0, 0.0, 3.0)"><rect height="1" style="vector-effect: non-scaling-stroke;" width="1" x="-0.5" y="-0.5" /></g></g></g><g><g style="stroke: black;stroke-width: 0.75;" transform="matrix(1.0, 0.0, 0.0, 1.0, 0.0, 4.0)"><rect height="1" style="vector-effect: non-scaling-stroke;" width="1" x="-0.5" y="-0.5" /></g></g></g><g><g style="stroke: black;stroke-width: 0.75;" transform="matrix(1.0, 0.0, 0.0, 1.0, 0.0, 5.0)"><rect height="1" style="vector-effect: non-scaling-stroke;" width="1" x="-0.5" y="-0.5" /></g></g></g><g><g style="stroke: black;stroke-width: 0.75;" transform="matrix(1.0, 0.0, 0.0, 1.0, 0.0, 6.0)"><rect height="1" style="vector-effect: non-scaling-stroke;" width="1" x="-0.5" y="-0.5" /></g></g></g><g><g style="stroke: black;stroke-width: 0.75;" transform="matrix(1.0, 0.0, 0.0, 1.0, 0.0, 7.0)"><rect height="1" style="vector-effect: non-scaling-stroke;" width="1" x="-0.5" y="-0.5" /></g></g></g><g><g style="stroke: black;stroke-width: 0.75;" transform="matrix(1.0, 0.0, 0.0, 1.0, 0.0, 8.0)"><rect height="1" style="vector-effect: non-scaling-stroke;" width="1" x="-0.5" y="-0.5" /></g></g></g><g><g style="stroke: black;stroke-width: 0.75;" transform="matrix(1.0, 0.0, 0.0, 1.0, 0.0, 9.0)"><rect height="1" style="vector-effect: non-scaling-stroke;" width="1" x="-0.5" y="-0.5" /></g></g></g><g><g style="stroke: black;stroke-width: 0.75;" transform="matrix(1.0, 0.0, 0.0, 1.0, 0.0, 10.0)"><rect height="1" style="vector-effect: non-scaling-stroke;" width="1" x="-0.5" y="-0.5" /></g></g></g><g><g style="stroke: black;stroke-width: 0.75;" transform="matrix(1.0, 0.0, 0.0, 1.0, 0.0, 11.0)"><rect height="1" style="vector-effect: non-scaling-stroke;" width="1" x="-0.5" y="-0.5" /></g></g></g><g><g style="stroke: black;stroke-width: 0.75;" transform="matrix(1.0, 0.0, 0.0, 1.0, 0.0, 12.0)"><rect height="1" style="vector-effect: non-scaling-stroke;" width="1" x="-0.5" y="-0.5" /></g></g></g><g><g style="stroke: black;stroke-width: 0.75;" transform="matrix(1.0, 0.0, 0.0, 1.0, 0.0, 13.0)"><rect height="1" style="vector-effect: non-scaling-stroke;" width="1" x="-0.5" y="-0.5" /></g></g></g><g><g style="stroke: black;stroke-width: 0.75;" transform="matrix(1.0, 0.0, 0.0, 1.0, 0.0, 14.0)"><rect height="1" style="vector-effect: non-scaling-stroke;" width="1" x="-0.5" y="-0.5" /></g></g></g></g><g transform="matrix(1.0, 0.0, 0.0, 1.0, -0.0, -7.75)"><g><g style="fill: #000000;stroke: black;stroke-width: 0.0;" transform="matrix(1.0, 0.0, 0.0, 1.0, 0.0, 0.0)"><text style="text-align:center; text-anchor:middle; dominant-baseline:middle;font-family:sans-serif; font-weight: bold;font-size:0.5px;vector-effect: non-scaling-stroke;" transform="translate(-5e-05, 0)">a</text></g><g style="stroke: black;stroke-width: 1.5;" transform="matrix(1.0, 0.0, 0.0, 1.0, 0.0, 0.0)"><g /></g></g></g></g></g><g transform="matrix(1.0, 0.0, 0.0, 1.0, 1.5, 0.0)"><g style="stroke: black;stroke-width: 1.5;" transform="matrix(1.0, 0.0, 0.0, 1.0, 0.0, 0.0)"><g /></g></g></g><g transform="matrix(1.0, 0.0, 0.0, 1.0, 2.5, 0.0)"><g /></g></g><g transform="matrix(1.0, 0.0, 0.0, 1.0, 3.5, 0.0)"><g style="stroke: black;stroke-width: 1.5;" transform="matrix(1.0, 0.0, 0.0, 1.0, 0.0, 0.0)"><g /></g></g></g><g transform="matrix(1.0, 0.0, 0.0, 1.0, 5.0, 0.0)"><g transform="matrix(1.0, 0.0, 0.0, 1.0, -0.0, 0.25)"><g><g transform="matrix(1.0, 0.0, 0.0, 1.0, -0.0, -0.5)"><g><g><g /><g><g style="stroke: black;stroke-width: 0.75;" transform="matrix(1.0, 0.0, 0.0, 1.0, 0.0, 0.0)"><rect height="1" style="vector-effect: non-scaling-stroke;" width="1" x="-0.5" y="-0.5" /></g></g></g><g><g style="stroke: black;stroke-width: 0.75;" transform="matrix(1.0, 0.0, 0.0, 1.0, 0.0, 1.0)"><rect height="1" style="vector-effect: non-scaling-stroke;" width="1" x="-0.5" y="-0.5" /></g></g></g></g><g transform="matrix(1.0, 0.0, 0.0, 1.0, -0.0, -1.25)"><g><g style="fill: #000000;stroke: black;stroke-width: 0.0;" transform="matrix(1.0, 0.0, 0.0, 1.0, 0.0, 0.0)"><text style="text-align:center; text-anchor:middle; dominant-baseline:middle;font-family:sans-serif; font-weight: bold;font-size:0.5px;vector-effect: non-scaling-stroke;" transform="translate(-5e-05, 0)">out</text></g><g style="stroke: black;stroke-width: 1.5;" transform="matrix(1.0, 0.0, 0.0, 1.0, 0.0, 0.0)"><g /></g></g></g></g></g></g></g><g><g><g /><g /></g><g /></g></g><g><g><g /><g /></g><g /></g></g><g><g><g /><g /></g><g /></g></g><g><g><g /><g /></g><g /></g></g><g><g><g /><g /></g><g /></g></g><g><g><g /><g /></g><g /></g></g><g><g><g /><g /></g><g /></g></g><g><g><g /><g /></g><g /></g></g></g><g transform="matrix(1.0, 0.0, 0.0, 1.0, -0.0, -8.5001)"><g><g><g style="stroke: black;stroke-width: 1.5;" transform="matrix(1.0, 0.0, 0.0, 1.0, 0.0, 0.0)"><g /></g><g transform="matrix(1.0, 0.0, 0.0, 1.0, 0.0, 0.25)"><g style="fill: #000000;stroke: black;stroke-width: 0.0;" transform="matrix(1.0, 0.0, 0.0, 1.0, 0.0, 0.0)"><text style="text-align:center; text-anchor:middle; dominant-baseline:middle;font-family:sans-serif; font-weight: bold;font-size:0.5px;vector-effect: non-scaling-stroke;" transform="translate(-5e-05, 0)">Threadgroup 0 0</text></g></g></g><g transform="matrix(1.0, 0.0, 0.0, 1.0, 0.0, 0.5001)"><g style="stroke: black;stroke-width: 1.5;" transform="matrix(1.0, 0.0, 0.0, 1.0, 0.0, 0.0)"><g /></g></g></g></g></g></g></g></g><g transform="matrix(1.0, 0.0, 0.0, 1.0, 7.0, 0.0)"><g style="stroke: black;stroke-width: 1.5;" transform="matrix(1.0, 0.0, 0.0, 1.0, 0.0, 0.0)"><g /></g></g></g></g><g /></g><g style="stroke: #808080;stroke-width: 1.5;fill-opacity: 0.0;" transform="matrix(1.0, 0.0, 0.0, 1.0, 0.0, 0.0)"><rect height="19.80012" rx="0.5" ry="0.5" style="vector-effect: non-scaling-stroke;" width="9.6" x="-4.8" y="-9.90006" /></g></g><g /></g></g></g><g transform="matrix(1.0, 0.0, 0.0, 1.0, 10.56, 0.0)"><g><g><g><g transform="matrix(1.0, 0.0, 0.0, 1.0, -3.5, -0.0)"><g><g><g style="stroke: black;stroke-width: 1.5;" transform="matrix(1.0, 0.0, 0.0, 1.0, 0.0, 0.0)"><g /></g><g transform="matrix(1.0, 0.0, 0.0, 1.0, 3.5, 0.0)"><g transform="matrix(1.0, 0.0, 0.0, 1.0, -0.0, 0.5000499999999999)"><g><g transform="matrix(1.0, 0.0, 0.0, 1.0, -2.5, -0.0)"><g><g><g><g><g><g><g><g><g><g><g><g><g transform="matrix(1.0, 0.0, 0.0, 1.0, -0.0, 0.25)"><g><g transform="matrix(1.0, 0.0, 0.0, 1.0, -0.0, -7.0)"><g><g><g><g><g><g><g><g><g><g><g><g><g><g><g><g /><g><g style="stroke: black;stroke-width: 0.75;" transform="matrix(1.0, 0.0, 0.0, 1.0, 0.0, 0.0)"><rect height="1" style="vector-effect: non-scaling-stroke;" width="1" x="-0.5" y="-0.5" /></g></g></g><g><g style="stroke: black;stroke-width: 0.75;" transform="matrix(1.0, 0.0, 0.0, 1.0, 0.0, 1.0)"><rect height="1" style="vector-effect: non-scaling-stroke;" width="1" x="-0.5" y="-0.5" /></g></g></g><g><g style="stroke: black;stroke-width: 0.75;" transform="matrix(1.0, 0.0, 0.0, 1.0, 0.0, 2.0)"><rect height="1" style="vector-effect: non-scaling-stroke;" width="1" x="-0.5" y="-0.5" /></g></g></g><g><g style="stroke: black;stroke-width: 0.75;" transform="matrix(1.0, 0.0, 0.0, 1.0, 0.0, 3.0)"><rect height="1" style="vector-effect: non-scaling-stroke;" width="1" x="-0.5" y="-0.5" /></g></g></g><g><g style="stroke: black;stroke-width: 0.75;" transform="matrix(1.0, 0.0, 0.0, 1.0, 0.0, 4.0)"><rect height="1" style="vector-effect: non-scaling-stroke;" width="1" x="-0.5" y="-0.5" /></g></g></g><g><g style="stroke: black;stroke-width: 0.75;" transform="matrix(1.0, 0.0, 0.0, 1.0, 0.0, 5.0)"><rect height="1" style="vector-effect: non-scaling-stroke;" width="1" x="-0.5" y="-0.5" /></g></g></g><g><g style="stroke: black;stroke-width: 0.75;" transform="matrix(1.0, 0.0, 0.0, 1.0, 0.0, 6.0)"><rect height="1" style="vector-effect: non-scaling-stroke;" width="1" x="-0.5" y="-0.5" /></g></g></g><g><g style="stroke: black;stroke-width: 0.75;" transform="matrix(1.0, 0.0, 0.0, 1.0, 0.0, 7.0)"><rect height="1" style="vector-effect: non-scaling-stroke;" width="1" x="-0.5" y="-0.5" /></g></g></g><g><g style="stroke: black;stroke-width: 0.75;" transform="matrix(1.0, 0.0, 0.0, 1.0, 0.0, 8.0)"><rect height="1" style="vector-effect: non-scaling-stroke;" width="1" x="-0.5" y="-0.5" /></g></g></g><g><g style="stroke: black;stroke-width: 0.75;" transform="matrix(1.0, 0.0, 0.0, 1.0, 0.0, 9.0)"><rect height="1" style="vector-effect: non-scaling-stroke;" width="1" x="-0.5" y="-0.5" /></g></g></g><g><g style="stroke: black;stroke-width: 0.75;" transform="matrix(1.0, 0.0, 0.0, 1.0, 0.0, 10.0)"><rect height="1" style="vector-effect: non-scaling-stroke;" width="1" x="-0.5" y="-0.5" /></g></g></g><g><g style="stroke: black;stroke-width: 0.75;" transform="matrix(1.0, 0.0, 0.0, 1.0, 0.0, 11.0)"><rect height="1" style="vector-effect: non-scaling-stroke;" width="1" x="-0.5" y="-0.5" /></g></g></g><g><g style="stroke: black;stroke-width: 0.75;" transform="matrix(1.0, 0.0, 0.0, 1.0, 0.0, 12.0)"><rect height="1" style="vector-effect: non-scaling-stroke;" width="1" x="-0.5" y="-0.5" /></g></g></g><g><g style="stroke: black;stroke-width: 0.75;" transform="matrix(1.0, 0.0, 0.0, 1.0, 0.0, 13.0)"><rect height="1" style="vector-effect: non-scaling-stroke;" width="1" x="-0.5" y="-0.5" /></g></g></g><g><g style="stroke: black;stroke-width: 0.75;" transform="matrix(1.0, 0.0, 0.0, 1.0, 0.0, 14.0)"><rect height="1" style="vector-effect: non-scaling-stroke;" width="1" x="-0.5" y="-0.5" /></g></g></g></g><g transform="matrix(1.0, 0.0, 0.0, 1.0, -0.0, -7.75)"><g><g style="fill: #000000;stroke: black;stroke-width: 0.0;" transform="matrix(1.0, 0.0, 0.0, 1.0, 0.0, 0.0)"><text style="text-align:center; text-anchor:middle; dominant-baseline:middle;font-family:sans-serif; font-weight: bold;font-size:0.5px;vector-effect: non-scaling-stroke;" transform="translate(-5e-05, 0)">a</text></g><g style="stroke: black;stroke-width: 1.5;" transform="matrix(1.0, 0.0, 0.0, 1.0, 0.0, 0.0)"><g /></g></g></g></g></g><g transform="matrix(1.0, 0.0, 0.0, 1.0, 1.5, 0.0)"><g style="stroke: black;stroke-width: 1.5;" transform="matrix(1.0, 0.0, 0.0, 1.0, 0.0, 0.0)"><g /></g></g></g><g transform="matrix(1.0, 0.0, 0.0, 1.0, 2.5, 0.0)"><g /></g></g><g transform="matrix(1.0, 0.0, 0.0, 1.0, 3.5, 0.0)"><g style="stroke: black;stroke-width: 1.5;" transform="matrix(1.0, 0.0, 0.0, 1.0, 0.0, 0.0)"><g /></g></g></g><g transform="matrix(1.0, 0.0, 0.0, 1.0, 5.0, 0.0)"><g transform="matrix(1.0, 0.0, 0.0, 1.0, -0.0, 0.25)"><g><g transform="matrix(1.0, 0.0, 0.0, 1.0, -0.0, -0.5)"><g><g><g /><g><g style="stroke: black;stroke-width: 0.75;" transform="matrix(1.0, 0.0, 0.0, 1.0, 0.0, 0.0)"><rect height="1" style="vector-effect: non-scaling-stroke;" width="1" x="-0.5" y="-0.5" /></g></g></g><g><g style="stroke: black;stroke-width: 0.75;" transform="matrix(1.0, 0.0, 0.0, 1.0, 0.0, 1.0)"><rect height="1" style="vector-effect: non-scaling-stroke;" width="1" x="-0.5" y="-0.5" /></g></g></g></g><g transform="matrix(1.0, 0.0, 0.0, 1.0, -0.0, -1.25)"><g><g style="fill: #000000;stroke: black;stroke-width: 0.0;" transform="matrix(1.0, 0.0, 0.0, 1.0, 0.0, 0.0)"><text style="text-align:center; text-anchor:middle; dominant-baseline:middle;font-family:sans-serif; font-weight: bold;font-size:0.5px;vector-effect: non-scaling-stroke;" transform="translate(-5e-05, 0)">out</text></g><g style="stroke: black;stroke-width: 1.5;" transform="matrix(1.0, 0.0, 0.0, 1.0, 0.0, 0.0)"><g /></g></g></g></g></g></g></g><g><g><g /><g /></g><g /></g></g><g><g><g /><g /></g><g /></g></g><g><g><g /><g /></g><g /></g></g><g><g><g /><g /></g><g /></g></g><g><g><g /><g /></g><g /></g></g><g><g><g /><g /></g><g /></g></g><g><g><g /><g /></g><g /></g></g><g><g><g /><g /></g><g /></g></g></g><g transform="matrix(1.0, 0.0, 0.0, 1.0, -0.0, -8.5001)"><g><g><g style="stroke: black;stroke-width: 1.5;" transform="matrix(1.0, 0.0, 0.0, 1.0, 0.0, 0.0)"><g /></g><g transform="matrix(1.0, 0.0, 0.0, 1.0, 0.0, 0.25)"><g style="fill: #000000;stroke: black;stroke-width: 0.0;" transform="matrix(1.0, 0.0, 0.0, 1.0, 0.0, 0.0)"><text style="text-align:center; text-anchor:middle; dominant-baseline:middle;font-family:sans-serif; font-weight: bold;font-size:0.5px;vector-effect: non-scaling-stroke;" transform="translate(-5e-05, 0)">Threadgroup 1 0</text></g></g></g><g transform="matrix(1.0, 0.0, 0.0, 1.0, 0.0, 0.5001)"><g style="stroke: black;stroke-width: 1.5;" transform="matrix(1.0, 0.0, 0.0, 1.0, 0.0, 0.0)"><g /></g></g></g></g></g></g></g></g><g transform="matrix(1.0, 0.0, 0.0, 1.0, 7.0, 0.0)"><g style="stroke: black;stroke-width: 1.5;" transform="matrix(1.0, 0.0, 0.0, 1.0, 0.0, 0.0)"><g /></g></g></g></g><g /></g><g style="stroke: #808080;stroke-width: 1.5;fill-opacity: 0.0;" transform="matrix(1.0, 0.0, 0.0, 1.0, 0.0, 0.0)"><rect height="19.80012" rx="0.5" ry="0.5" style="vector-effect: non-scaling-stroke;" width="9.6" x="-4.8" y="-9.90006" /></g></g><g /></g></g></g></g></g></g><g /></g></g></g></g><g /></g></g></g></g></svg>